# xmcd
#
# Track frame offsets: 
#        150
#        16420
#        33412
#        53239
#        70212
#        82702
#        97708
#        117781
#        133129
#        150440
#        171390
#        187558
#        204053
#        221389
#        231167
#        246978
#        264968
#        282982
#        300686
#        321135
#
# Disc length: 4517 seconds
#
# Revision: 0
# Processed by: cddbd v1.5.2PL0 Copyright (c) Steve Scherf et al.
# Submitted via: ExactAudioCopy v0.95a5
#
DISCID=fd11a314
DTITLE=Георг Отс - Великие исполнители XX века CD1
DYEAR=1900
DGENRE=A Cappella
TTITLE0=Я верю, друзья
TTITLE1=Скоро я вернусь к тебе, родная
TTITLE2=Песня любви
TTITLE3=Лесная девушка
TTITLE4=Воспоминание
TTITLE5=Сормовская лирическая
TTITLE6=Где ты?
TTITLE7=Глаза
TTITLE8=Старый вальс
TTITLE9=Вальс о вальсе
TTITLE10=Севастопольский вальс
TTITLE11=Саармааский вальс
TTITLE12=Дунай голубой
TTITLE13=С чего начинается Родина
TTITLE14=Песня русского сердца
TTITLE15=Я люблю тебя, жизнь
TTITLE16=Старинная мелодия
TTITLE17=Вечерняя песня
TTITLE18=Подмосковные вечера
TTITLE19=Мелодия
EXTD=
EXTT0=
EXTT1=
EXTT2=
EXTT3=
EXTT4=
EXTT5=
EXTT6=
EXTT7=
EXTT8=
EXTT9=
EXTT10=
EXTT11=
EXTT12=
EXTT13=
EXTT14=
EXTT15=
EXTT16=
EXTT17=
EXTT18=
EXTT19=
PLAYORDER=
